<svg width="14" height="15" viewBox="0 0 14 15" fill="none" xmlns="http://www.w3.org/2000/svg">
<g id="Frame">
<path id="Vector" d="M7.37848 9.67719C10.1648 9.67719 12.4235 8.60103 12.4235 7.27353C12.4235 5.94603 10.1648 4.86987 7.37848 4.86987C4.59221 4.86987 2.3335 5.94603 2.3335 7.27353C2.3335 8.60103 4.59221 9.67719 7.37848 9.67719Z" stroke="#4D4D4D" stroke-linecap="round" stroke-linejoin="round"/>
<path id="Vector_2" d="M7.37789 8.14793C8.90502 8.14793 10.143 7.75662 10.143 7.27392C10.143 6.79121 8.90502 6.3999 7.37789 6.3999C5.85077 6.3999 4.61279 6.79121 4.61279 7.27392C4.61279 7.75662 5.85077 8.14793 7.37789 8.14793Z" stroke="#4D4D4D" stroke-linecap="round" stroke-linejoin="round"/>
<path id="Vector_3" d="M2.3335 7.27393V10.3754" stroke="#4D4D4D" stroke-linecap="round" stroke-linejoin="round"/>
<path id="Vector_4" d="M7.37842 9.67773V12.3931" stroke="#4D4D4D" stroke-linecap="round" stroke-linejoin="round"/>
<path id="Vector_5" d="M12.4233 7.27393V10.3754" stroke="#4D4D4D" stroke-linecap="round" stroke-linejoin="round"/>
</g>
</svg>
